<svg width="704" height="704" viewBox="0 0 704 704" fill="none" xmlns="http://www.w3.org/2000/svg">
<g clip-path="url(#clip0_1_2)">
<g filter="url(#filter0_d_1_2)">
<path d="M334.256 668.814L333.25 669.996H331.238L330.232 671.179H329.226L327.214 673.543H326.208L325.201 674.726V675.908L323.189 678.273V679.455L322.183 680.637V684.184L321.177 685.366V690.096L322.183 691.278V693.643L323.189 694.825V697.19L328.22 703.101H329.226L330.232 704.283H331.238L332.244 705.466H335.262L336.268 706.648H357.396L358.402 705.466H362.427L363.433 704.283H364.439L365.445 703.101H366.451L370.475 698.372V697.19L371.481 696.007V694.825L372.487 693.643V681.82L371.481 680.637V679.455L370.475 678.273V677.09L365.445 671.179H364.439L363.433 669.996H361.42L360.414 668.814H334.256Z" fill="white" stroke="black"/>
<rect width="709" height="591.839" stroke="black"/>
<path d="M243.413 494.019L242.462 495.497H240.561L238.659 498.454H237.708L235.806 501.41V502.888L234.856 504.366V505.844L233.905 507.322V508.8L232.954 510.278V523.58L233.905 525.058V526.536L234.856 528.014V529.492L239.61 536.882H240.561L241.511 538.36H243.413L244.364 539.838H467.809L468.76 538.36H470.662L471.613 536.882H472.564L474.465 533.926H475.416L476.367 532.448V530.97L478.269 528.014V526.536L479.219 525.058V519.146L480.17 517.668V514.712L479.219 513.234V508.8L478.269 507.322V505.844L477.318 504.366V502.888L473.514 496.976H472.564L471.613 495.497H470.662L469.711 494.019H243.413Z" fill="white"/>
<path d="M196.156 398.03L195.261 399.56H193.47L191.68 402.62H190.784L188.994 405.679V407.209L187.203 410.269V411.799L186.308 413.329V419.448L185.412 420.978V422.508L186.308 424.038V430.158L187.203 431.688V433.217L188.994 436.277V437.807L190.784 440.867H191.68L193.47 443.927H195.261L196.156 445.457H513.109L514.004 443.927H514.9L515.795 442.397H516.69L521.167 434.747V433.217L522.062 431.688V430.158L522.958 428.628V414.859L522.062 413.329V411.799L521.167 410.269V408.739L516.69 401.09H515.795L514.9 399.56H514.004L513.109 398.03H196.156Z" fill="white"/>
<path d="M10.6411 512.799L11.876 515.055L10.1025 517.865L12.5723 522.376L11.6856 523.781L14.1554 528.293L16.2771 529.144L18.747 533.655L20.8686 534.506L22.1036 536.761L30.5903 540.165L31.8252 542.42L33.9469 543.271L36.9553 542.717L45.442 546.12L48.4505 545.566L50.5722 546.417L56.589 545.309L58.7107 546.159L64.7276 545.051L65.6143 543.646L71.6312 542.538L73.4047 539.728L76.4132 539.174L390.325 41.8287L389.09 39.573L389.977 38.1681L388.742 35.9124L389.629 34.5074L383.454 23.2288L381.332 22.3781L380.097 20.1223L377.976 19.2715L376.741 17.0158L357.646 9.35872L354.637 9.91286L352.515 9.06207L349.507 9.61621L347.385 8.76542L332.343 11.5361L331.456 12.941L328.448 13.4952L327.561 14.9001L324.553 15.4543L10.6411 512.799Z" fill="white"/>
<path d="M632.532 541.101L635.537 541.667L637.294 544.483L643.304 545.614L644.183 547.022L650.193 548.153L652.32 547.31L658.33 548.44L660.457 547.598L663.462 548.163L671.969 544.791L674.974 545.357L677.1 544.514L678.349 542.263L686.855 538.891L688.103 536.64L690.23 535.797L692.726 531.295L694.853 530.452L697.349 525.95L696.47 524.542L698.967 520.04L697.21 517.223L698.458 514.972L387.463 16.4642L384.457 15.8989L383.579 14.4906L380.574 13.9253L379.695 12.5171L364.669 9.69046L362.543 10.5333L359.538 9.96801L357.411 10.8109L354.406 10.2456L335.266 17.8315L334.018 20.0826L331.891 20.9255L330.643 23.1766L328.516 24.0195L322.276 35.275L323.154 36.6832L321.906 38.9343L322.785 40.3425L321.537 42.5936L632.532 541.101Z" fill="white"/>
<path d="M294.586 586.241L293.62 587.551H290.722L289.756 588.862H288.79L286.858 591.484H285.892L284.926 592.795V594.106L282.994 596.727V598.038L282.028 599.349V601.971L281.062 603.281V611.146L282.028 612.457V615.079L282.994 616.39V617.7L284.926 620.322V621.633L285.892 622.944H286.858L288.79 625.565H289.756L290.722 626.876H293.62L294.586 628.187H403.743L404.709 626.876H407.607L408.573 625.565H409.539L415.335 617.7V615.079L416.301 613.768V609.836L417.267 608.525V605.903L416.301 604.592V600.66L415.335 599.349V598.038L414.369 596.727V595.416L409.539 588.862H407.607L406.641 587.551H404.709L403.743 586.241H294.586Z" fill="white" stroke="black"/>
</g>
</g>
<defs>
<filter id="filter0_d_1_2" x="-4.5" y="-0.5" width="718" height="715.648" filterUnits="userSpaceOnUse" color-interpolation-filters="sRGB">
<feFlood flood-opacity="0" result="BackgroundImageFix"/>
<feColorMatrix in="SourceAlpha" type="matrix" values="0 0 0 0 0 0 0 0 0 0 0 0 0 0 0 0 0 0 127 0" result="hardAlpha"/>
<feOffset dy="4"/>
<feGaussianBlur stdDeviation="2"/>
<feComposite in2="hardAlpha" operator="out"/>
<feColorMatrix type="matrix" values="0 0 0 0 0 0 0 0 0 0 0 0 0 0 0 0 0 0 0.25 0"/>
<feBlend mode="normal" in2="BackgroundImageFix" result="effect1_dropShadow_1_2"/>
<feBlend mode="normal" in="SourceGraphic" in2="effect1_dropShadow_1_2" result="shape"/>
</filter>
<clipPath id="clip0_1_2">
<rect width="704" height="704" fill="white"/>
</clipPath>
</defs>
</svg>
