<svg width="701" height="701" viewBox="0 0 701 701" fill="none" xmlns="http://www.w3.org/2000/svg">
<path d="M462.235 222.934L463.568 610.067L110.365 384.368L462.235 222.934Z" fill="#292D2A"/>
<path d="M493.197 174.482L494.529 561.614L141.327 335.915L493.197 174.482Z" fill="#A7B2A6"/>
<path d="M462.235 222.934L463.568 610.067L110.365 384.368L462.235 222.934Z" fill="#292D2A"/>
<path d="M493.197 174.482L494.529 561.614L141.327 335.915L493.197 174.482Z" fill="#A7B2A6"/>
<path d="M462.235 222.934L463.568 610.067L110.365 384.368L462.235 222.934Z" fill="#292D2A"/>
<path d="M493.197 174.482L494.529 561.614L141.327 335.915L493.197 174.482Z" fill="#A7B2A6"/>
<path d="M462.235 222.934L463.568 610.067L110.365 384.368L462.235 222.934Z" fill="#292D2A"/>
<path d="M493.197 174.482L494.529 561.614L141.327 335.915L493.197 174.482Z" fill="#A7B2A6"/>
<path d="M521.581 124.849L522.913 511.982L169.711 286.283L521.581 124.849Z" fill="#A7B2A6"/>
<path d="M521.581 124.849L522.913 511.982L169.711 286.283L521.581 124.849Z" fill="#A7B2A6"/>
<path d="M521.581 124.849L522.913 511.982L169.711 286.283L521.581 124.849Z" fill="#A7B2A6"/>
<path d="M521.581 124.849L522.913 511.982L169.711 286.283L521.581 124.849Z" fill="#FFF8F8"/>
<path d="M462.235 222.934L463.568 610.067L110.365 384.368L462.235 222.934ZM493.197 174.482L494.529 561.614L141.327 335.915L493.197 174.482ZM521.581 124.849L522.913 511.982L169.711 286.283L521.581 124.849Z" stroke="black"/>
</svg>
